<svg xmlns="http://www.w3.org/2000/svg" width="42" height="42" viewBox="0 0 42 42"><g fill="#FFF" fill-rule="evenodd" transform="translate(1 1)"><circle cx="20" cy="20" r="20" fill-opacity=".07" stroke="#FFF" stroke-opacity=".87"/><path d="M17.457 29.104a.407.407 0 0 1-.167-.036.769.769 0 0 1-.15-.088.446.446 0 0 1 0-.65l7.788-7.77-7.787-7.787a.401.401 0 0 1-.141-.316c0-.129.047-.234.14-.316a.401.401 0 0 1 .317-.141c.129 0 .234.047.316.14l8.104 8.104a.417.417 0 0 1 .123.308.479.479 0 0 1-.123.325l-8.104 8.103a.769.769 0 0 1-.149.088.407.407 0 0 1-.167.036z"/></g></svg>