<svg xmlns="http://www.w3.org/2000/svg" xmlns:xlink="http://www.w3.org/1999/xlink" width="110" height="238" viewBox="0 0 110 238"><svg width="110" height="37" viewBox="0 0 110 37" id="android" y="0"><defs><linearGradient id="a" x1="49.986%" x2="49.986%" y1="-.013%" y2="99.989%"><stop offset="0%" stop-color="#5D7FAF"></stop><stop offset="28.63%" stop-color="#6C93B2"></stop><stop offset="76.7%" stop-color="#8CB9B8"></stop><stop offset="100%" stop-color="#9CCCB9"></stop></linearGradient><linearGradient id="b" x1=".034%" x2="100.006%" y1="50.009%" y2="50.009%"><stop offset="0%" stop-color="#81C0A9"></stop><stop offset="100%" stop-color="#DFE798"></stop></linearGradient><linearGradient id="c" x1="50.02%" x2="50.02%" y1=".066%" y2="100%"><stop offset="0%" stop-color="#D25951"></stop><stop offset="16.68%" stop-color="#C05E61"></stop><stop offset="57.48%" stop-color="#9A6385"></stop><stop offset="86.19%" stop-color="#84639C"></stop><stop offset="100%" stop-color="#7E64A6"></stop></linearGradient><linearGradient id="d" x1="49.903%" x2="49.903%" y1=".068%" y2="99.844%"><stop offset="0%" stop-color="#DF847A"></stop><stop offset="11.94%" stop-color="#E08A7A"></stop><stop offset="71.28%" stop-color="#EBB078"></stop><stop offset="100%" stop-color="#F1C178"></stop></linearGradient></defs><g fill="none"><path fill="#000" d="M109.978 31.194a4.861 4.861 0 0 1-4.86 4.872H4.86A4.861 4.861 0 0 1 0 31.194V4.872A4.861 4.861 0 0 1 4.86 0h100.28A4.861 4.861 0 0 1 110 4.872v26.322h-.022z"></path><path fill="url(#a)" d="M.13.283V24.94L12.508 12.6z" transform="translate(8.115 6.311)"></path><path fill="url(#b)" d="M15.818 9.293L10.82 6.4.13.196v.087L12.508 12.6z" transform="translate(8.115 6.311)"></path><path fill="url(#c)" d="M.13 24.941v.087l10.69-6.202 4.998-2.895-3.31-3.33z" transform="translate(8.115 6.311)"></path><path fill="url(#d)" d="M15.818 9.293l-3.31 3.308 3.31 3.33 5.713-3.33z" transform="translate(8.115 6.311)"></path><path d="M85.587 23.85c-.456 0-.89-.085-1.28-.257a2.32 2.32 0 0 1-.977-.794h-.087c.043.407.087.794.087 1.18v2.92h-1.085v-10.24h.89l.151.966h.044c.282-.387.608-.666.977-.837a3.028 3.028 0 0 1 1.28-.258c.955 0 1.672.322 2.193.966.52.644.781 1.546.781 2.705 0 1.16-.26 2.06-.781 2.705-.521.622-1.26.945-2.193.945zm-.152-6.418c-.738 0-1.259.193-1.584.6-.326.409-.5 1.031-.5 1.911v.237c0 .987.174 1.695.5 2.125.325.43.868.644 1.606.644.608 0 1.107-.258 1.454-.751.348-.494.521-1.181.521-2.04 0-.88-.173-1.567-.52-2.04-.348-.45-.847-.686-1.477-.686zm5.644 6.29h-1.085V13.675h1.085zm6.208 0l-.217-1.01h-.044c-.347.452-.716.752-1.063.902-.347.15-.803.237-1.324.237-.717 0-1.26-.172-1.672-.537-.412-.365-.607-.88-.607-1.546 0-1.438 1.15-2.168 3.473-2.254l1.215-.043v-.43c0-.557-.13-.965-.369-1.223-.239-.258-.63-.386-1.15-.386-.586 0-1.281.171-2.019.536l-.326-.815a4.925 4.925 0 0 1 1.15-.451 5.08 5.08 0 0 1 1.26-.172c.846 0 1.476.193 1.888.558.413.365.608.966.608 1.803v4.83h-.803zm-2.431-.752c.673 0 1.194-.193 1.584-.558.391-.365.586-.88.586-1.545v-.645l-1.085.043c-.868.022-1.476.172-1.867.408-.39.236-.564.601-.564 1.095 0 .387.109.687.347.88.24.215.565.322.999.322zm3.864-6.333h1.15l1.563 4.036c.347.923.564 1.589.63 1.997h.043c.065-.215.173-.601.347-1.117.174-.536.781-2.168 1.78-4.894h1.172l-3.082 8.05c-.304.795-.651 1.353-1.064 1.696-.412.344-.912.494-1.498.494a5.04 5.04 0 0 1-.976-.107v-.86c.238.044.499.087.803.087.738 0 1.28-.408 1.584-1.245l.391-1.01-2.844-7.127z" fill="#F9F9F9"></path><g fill="#F9F9F9"><path d="M65.635 17.07c.342.28 1.048.885 1.048 2.008 0 1.1-.62 1.62-1.24 2.116-.193.194-.407.41-.407.734 0 .323.214.496.385.647l.535.41c.641.562 1.24 1.058 1.24 2.095 0 1.403-1.347 2.806-3.871 2.806-2.139 0-3.166-1.036-3.166-2.137 0-.54.257-1.296 1.134-1.814.92-.561 2.16-.647 2.823-.69-.214-.26-.449-.54-.449-1.015 0-.26.064-.41.15-.583-.171.022-.321.022-.47.022-1.562 0-2.439-1.166-2.439-2.332 0-.69.3-1.446.941-1.986.834-.691 1.84-.82 2.63-.82h3.038l-.941.54h-.941zm-1.048 6.606c-.129-.021-.193-.021-.342-.021-.129 0-.92.021-1.54.237-.321.108-1.262.475-1.262 1.533 0 1.058 1.026 1.813 2.588 1.813 1.411 0 2.16-.69 2.16-1.597 0-.756-.492-1.166-1.604-1.965zm.427-2.828c.343-.345.364-.82.364-1.08 0-1.079-.642-2.741-1.86-2.741-.386 0-.792.194-1.027.497-.257.302-.321.712-.321 1.1 0 .994.577 2.656 1.84 2.656.363-.022.77-.194 1.004-.432zm-8.662 2.591c-2.33 0-3.593-1.835-3.593-3.498 0-1.943 1.583-3.605 3.807-3.605 2.16 0 3.508 1.706 3.508 3.498.021 1.748-1.326 3.605-3.722 3.605zm1.84-1.21c.363-.474.449-1.079.449-1.64 0-1.317-.62-3.8-2.438-3.8-.492 0-.963.195-1.326.497-.578.518-.685 1.166-.685 1.814 0 1.468.727 3.885 2.503 3.885.556 0 1.155-.28 1.497-.755zm-9.817 1.21c-2.331 0-3.593-1.835-3.593-3.498 0-1.943 1.582-3.605 3.807-3.605 2.16 0 3.507 1.706 3.507 3.498.022 1.748-1.326 3.605-3.721 3.605zm1.84-1.21c.363-.474.448-1.079.448-1.64 0-1.317-.62-3.8-2.438-3.8-.492 0-.962.195-1.326.497-.577.518-.684 1.166-.684 1.814 0 1.468.727 3.885 2.502 3.885.578 0 1.155-.28 1.497-.755zm-6.567.972l-2.117.497c-.856.13-1.626.259-2.438.259-4.085 0-5.647-3.022-5.647-5.397 0-2.893 2.203-5.592 5.967-5.592.792 0 1.562.13 2.267.324 1.113.324 1.626.691 1.947.929l-1.22 1.187-.513.13.364-.605c-.513-.497-1.412-1.403-3.165-1.403-2.332 0-4.107 1.792-4.107 4.404 0 2.806 2.01 5.44 5.24 5.44.941 0 1.433-.194 1.882-.367v-2.396l-2.224.13 1.176-.648h3.144l-.385.367c-.107.086-.128.13-.15.237-.02.13-.02.561-.02.712v1.792z"></path><path d="M70.297 22.77c-.492-.044-.599-.13-.599-.713v-8.549c.065-.518.214-.604.663-.885h-2.117l-1.112.54h1.133v9.218c0 .302-.064.345-.406.799h2.61l.555-.324c-.213-.043-.47-.043-.727-.086zm6.032.15c-.172.087-.321.195-.492.26a3.52 3.52 0 0 1-1.433.28c-.47 0-1.198-.021-1.947-.582-1.048-.734-1.497-2.008-1.497-3.13 0-2.29 1.861-3.433 3.358-3.433.535 0 1.07.13 1.519.41.727.496.92 1.122 1.026 1.468l-3.443 1.403-1.134.086c.364 1.879 1.626 2.98 3.037 2.98.749 0 1.284-.26 1.797-.518l-.791.777zm-1.39-4.425c.277-.108.427-.194.427-.41 0-.583-.663-1.274-1.454-1.274-.6 0-1.69.453-1.69 2.051 0 .26.022.518.043.777l2.673-1.144zm2.801-2.072v.971h-.107v-.971h-.32v-.108h.748v.108zm1.326.993v-.993l-.3.993h-.085l-.3-.993v.993h-.106v-1.08h.192l.278.864.278-.864h.193v1.08z"></path></g><path d="M36.399 10.617h-.728c0-.113-.064-.406-.214-.902h-1.07c-.15.496-.213.79-.213.902h-.685c0-.068.171-.586.535-1.556.364-.969.535-1.51.535-1.6h.877c0 .09.171.609.492 1.578.321.97.47 1.488.47 1.578zM35.35 9.242c-.256-.834-.385-1.285-.385-1.353h-.043c0 .068-.128.519-.406 1.353h.834zm4.023 1.375h-.578c0-.068-.214-.406-.642-1.06-.45-.676-.685-1.127-.749-1.375h-.043c.043.361.065.677.065.97 0 .405 0 .879.042 1.465h-.556a28.546 28.546 0 0 0 0-3.156h.685c0 .09.192.428.577 1.014.407.632.642 1.06.685 1.285h.043a8.21 8.21 0 0 1-.064-.969c0-.428-.022-.88-.043-1.352h.578a27.09 27.09 0 0 0-.043 1.51c0 .63.021 1.172.043 1.668zm3.316-1.691c0 .451-.15.857-.428 1.195-.278.338-.663.518-1.177.518-.235 0-.535 0-.941-.022.021-.496.021-1.037.021-1.646 0-.586 0-1.082-.021-1.51h.963c.556 0 .962.135 1.198.428.278.293.385.631.385 1.037zm-.62.113c0-.316-.086-.564-.257-.789-.172-.203-.428-.316-.792-.316-.064 0-.15 0-.278.023.021.316.021.654.021 1.014 0 .384 0 .767.022 1.15.107.022.192.022.3.022.32 0 .577-.112.727-.315.17-.226.256-.496.256-.79zm3.701 1.578h-.685c-.171-.564-.32-.924-.406-1.06-.086-.135-.257-.202-.45-.202h-.257c0 .405 0 .834.022 1.262h-.642c.021-.496.021-1.037.021-1.646 0-.586 0-1.082-.021-1.51h1.091c.706 0 1.049.248 1.049.766 0 .406-.193.677-.6.834v.046c.15.045.3.18.407.383.107.18.278.563.47 1.127zm-.856-2.232c0-.315-.193-.473-.6-.473-.149 0-.277 0-.384.045.021.248.021.586.021.97h.214c.492 0 .749-.181.749-.542zm4.15.586c0 .496-.15.902-.427 1.24a1.392 1.392 0 0 1-1.07.496c-.407 0-.749-.158-1.006-.45-.278-.294-.406-.677-.406-1.15 0-.496.15-.902.428-1.24a1.392 1.392 0 0 1 1.07-.496c.406 0 .748.158 1.005.45.278.316.406.7.406 1.15zm-.641.068c0-.338-.086-.609-.236-.812-.17-.202-.363-.315-.599-.315-.214 0-.406.113-.577.315-.15.203-.236.474-.236.812 0 .338.086.609.257.811.171.203.364.316.599.316.214 0 .407-.113.578-.316.15-.202.214-.473.214-.811zm1.947 1.578h-.642c.021-.496.021-1.06.021-1.646 0-.586 0-1.082-.021-1.51h.642c-.022.406-.022.902-.022 1.51-.021.609 0 1.15.022 1.646zm3.316-1.691c0 .451-.15.857-.428 1.195-.278.338-.663.518-1.177.518-.235 0-.535 0-.941-.022.021-.496.021-1.037.021-1.646 0-.586 0-1.082-.021-1.51h.963c.556 0 .962.135 1.198.428.278.293.385.631.385 1.037zm-.62.113c0-.316-.086-.564-.257-.789-.172-.203-.428-.316-.792-.316-.064 0-.15 0-.278.023.021.316.021.654.021 1.014 0 .384 0 .767.022 1.15.107.022.192.022.3.022.32 0 .577-.112.727-.315.17-.226.256-.496.256-.79zm5.048 1.578h-.727c0-.113-.064-.406-.214-.902h-1.07c-.15.496-.214.79-.214.902h-.684c0-.068.17-.586.535-1.556.363-.969.535-1.51.535-1.6h.877c0 .09.17.609.492 1.578.3.97.47 1.488.47 1.578zm-1.07-1.375c-.256-.834-.384-1.285-.384-1.353h-.043c0 .068-.129.519-.407 1.353h.835zm3.745-.947c0 .383-.129.676-.407.857-.278.18-.599.27-1.005.27h-.15c0 .293 0 .699.021 1.195h-.641c.021-.474.021-1.015.021-1.646 0-.586 0-1.082-.021-1.51h1.155c.3 0 .535.068.727.203.214.135.3.338.3.631zm-.6.135c0-.338-.213-.518-.662-.518-.107 0-.214.022-.343.045.022.316.022.654.022 1.037h.128c.578-.023.856-.203.856-.564zm3.36-.135c0 .383-.129.676-.407.857-.278.18-.599.27-1.005.27h-.15c0 .293 0 .699.021 1.195h-.642c.022-.474.022-1.015.022-1.646 0-.586 0-1.082-.022-1.51h1.156c.3 0 .535.068.727.203.193.135.3.338.3.631zm-.6.135c0-.338-.213-.518-.663-.518-.107 0-.213.022-.342.045.022.316.022.654.022 1.037h.128c.578-.023.856-.203.856-.564zm5.114.541c0 .496-.15.902-.428 1.24a1.392 1.392 0 0 1-1.07.496c-.406 0-.748-.158-1.005-.45-.278-.294-.407-.677-.407-1.15 0-.496.15-.902.428-1.24a1.392 1.392 0 0 1 1.07-.496c.407 0 .749.158 1.006.45.256.316.406.7.406 1.15zm-.642.068c0-.338-.085-.609-.235-.812-.171-.202-.364-.315-.6-.315-.213 0-.406.113-.577.315-.15.203-.235.474-.235.812 0 .338.085.609.257.811.17.203.363.316.599.316.214 0 .406-.113.577-.316a1.49 1.49 0 0 0 .214-.811zm3.744 1.578h-.577c0-.068-.214-.406-.642-1.06-.45-.676-.685-1.127-.749-1.375h-.043c.043.361.064.677.064.97 0 .405 0 .879.043 1.465h-.556c.021-.496.043-1.06.043-1.646 0-.586-.022-1.082-.043-1.51h.685c0 .09.192.428.577 1.014.407.632.642 1.06.685 1.285h.043a8.21 8.21 0 0 1-.065-.969c0-.428 0-.88-.042-1.352h.577a28.24 28.24 0 0 0-.042 1.51c.02.63.02 1.172.042 1.668z" fill="#F9FAFA"></path></g></svg><svg width="110" height="36" viewBox="0 0 110 36" id="appstore" y="37"><g fill="none"><path fill="#000" d="M109.85 31.135a4.841 4.841 0 0 1-4.846 4.846H5.018a4.841 4.841 0 0 1-4.846-4.846V4.975A4.841 4.841 0 0 1 5.018.129h99.986a4.841 4.841 0 0 1 4.846 4.846v26.16z"></path><path fill="#FFF" d="M19.105 6.261h-8.941c-1.072 0-1.93.858-1.93 1.93v19.791c0 1.073.858 1.93 1.93 1.93h8.941c1.072 0 1.93-.857 1.93-1.93V8.191c.022-1.072-.858-1.93-1.93-1.93zm-4.46 22.236a1.29 1.29 0 0 1-1.286-1.286 1.29 1.29 0 0 1 1.286-1.287 1.29 1.29 0 0 1 1.287 1.287 1.29 1.29 0 0 1-1.287 1.286zm4.89-3.216h-9.78V10.678h9.757v14.603h.021zM28.368 9.778l-.536 1.65h-.707l1.78-5.231h.814l1.78 5.232h-.729l-.558-1.651h-1.844zm1.716-.536l-.515-1.501a10.583 10.583 0 0 1-.257-.944h-.022c-.064.3-.15.622-.257.944l-.514 1.522h1.565v-.021zm2.123-1.566l.729 2.102c.128.343.236.664.3.965h.021c.086-.3.193-.622.322-.965l.729-2.102h.708l-1.48 3.753h-.643l-1.437-3.753h.75zm5.961 2.852c0 .322.021.644.064.9h-.622l-.064-.47h-.022c-.193.3-.621.557-1.158.557-.75 0-1.157-.536-1.157-1.073 0-.9.814-1.393 2.251-1.393v-.086c0-.3-.086-.88-.858-.858-.364 0-.729.107-.986.279l-.15-.45c.3-.193.772-.322 1.244-.322 1.157 0 1.436.793 1.436 1.544v1.372h.022zM37.503 9.5c-.75-.021-1.587.107-1.587.836 0 .45.3.644.643.644.494 0 .815-.3.922-.622.022-.065.022-.15.022-.215V9.5zm2.037-2.531c-.257 0-.429-.193-.429-.45 0-.236.172-.43.45-.43.258 0 .43.194.43.43 0 .257-.172.45-.451.45zm-.322 4.46V7.676h.686v3.753h-.686zm1.78-5.511h.686v5.51h-.686zm4.417 4.61c0 .322.022.644.065.9h-.622l-.065-.47h-.021c-.193.3-.622.557-1.158.557-.75 0-1.158-.536-1.158-1.073 0-.9.815-1.393 2.252-1.393v-.086c0-.3-.086-.88-.858-.858-.365 0-.73.107-.986.279l-.15-.45c.3-.193.771-.322 1.243-.322 1.158 0 1.437.793 1.437 1.544v1.372h.021zM44.75 9.5c-.75-.021-1.586.107-1.586.836 0 .45.3.644.643.644.493 0 .815-.3.922-.622.021-.065.021-.15.021-.215V9.5zm1.716-3.582h.686v2.359h.021c.236-.429.665-.686 1.287-.686.922 0 1.587.772 1.587 1.908 0 1.35-.858 2.016-1.694 2.016-.536 0-.965-.215-1.265-.708h-.022l-.043.622h-.579c.022-.257.022-.643.022-.965V5.918zm.686 4.01c0 .086 0 .171.021.257.13.472.537.794 1.03.794.729 0 1.136-.58 1.136-1.437 0-.75-.386-1.394-1.115-1.394-.472 0-.9.322-1.03.836a1.086 1.086 0 0 0-.042.28v.664zm3.688-4.01h.686v5.51h-.686zm2.166 3.752c.021.923.6 1.309 1.286 1.309.494 0 .794-.086 1.03-.193l.128.471c-.236.108-.664.236-1.265.236-1.158 0-1.844-.772-1.844-1.887 0-1.136.665-2.037 1.78-2.037 1.222 0 1.544 1.072 1.544 1.758 0 .15 0 .258-.022.322l-2.637.022zM55 9.178c0-.428-.172-1.115-.943-1.115-.708 0-.987.644-1.051 1.115H55zm4.61 2.337c-1.008 0-1.801-.75-1.801-1.93 0-1.265.836-1.994 1.865-1.994 1.073 0 1.802.793 1.802 1.93 0 1.393-.965 1.994-1.866 1.994zm.022-.515c.643 0 1.136-.622 1.136-1.458 0-.643-.322-1.437-1.115-1.437-.793 0-1.158.75-1.158 1.458 0 .815.472 1.437 1.137 1.437zm2.658-2.316c0-.386 0-.707-.042-1.008h.6l.043.622h.021a1.42 1.42 0 0 1 1.244-.707c.515 0 1.33.3 1.33 1.608v2.251h-.687V9.285c0-.6-.214-1.115-.879-1.115-.45 0-.793.321-.922.707a1.459 1.459 0 0 0-.043.322v2.273h-.686V8.684h.021zm6.69-1.908v.9h.987v.515h-.986v2.016c0 .471.128.729.514.729.193 0 .3-.022.386-.043l.022.514a1.988 1.988 0 0 1-.6.086c-.322 0-.58-.107-.73-.279-.193-.214-.257-.536-.257-.986V8.17h-.58v-.515h.58v-.686l.665-.193zm1.716-.858h.686v2.337h.022c.107-.193.278-.364.493-.471.193-.129.45-.193.707-.193.493 0 1.308.3 1.308 1.608v2.23h-.686V9.263c0-.622-.236-1.115-.879-1.115-.45 0-.793.3-.922.686-.043.086-.043.193-.043.322v2.273h-.686v-5.51zm4.653 3.752c.021.923.6 1.309 1.286 1.309.494 0 .794-.086 1.051-.193l.129.471c-.236.108-.665.236-1.265.236-1.158 0-1.844-.772-1.844-1.887 0-1.136.664-2.037 1.758-2.037 1.222 0 1.544 1.072 1.544 1.758 0 .15 0 .258-.022.322l-2.637.022zm1.994-.493c0-.428-.171-1.115-.943-1.115-.708 0-.987.644-1.051 1.115h1.994zm3.388-2.208c-.257 0-.429-.193-.429-.45 0-.236.172-.43.45-.43.258 0 .43.194.43.43 0 .257-.172.45-.451.45zm-.322 4.46V7.676h.687v3.753h-.687zm1.801-5.168a6.737 6.737 0 0 1 1.287-.107c.665 0 1.158.15 1.458.429.279.257.472.622.472 1.093 0 .472-.15.837-.408 1.115-.364.386-.943.58-1.608.58-.193 0-.386 0-.536-.044v2.102h-.664V6.26zm.687 2.509c.15.043.343.064.557.064.815 0 1.308-.407 1.308-1.115 0-.707-.493-1.029-1.243-1.029-.3 0-.515.022-.644.064V8.77h.022zm3.345-2.852h.686v2.337h.021c.108-.193.28-.364.493-.471.193-.129.45-.193.708-.193.515 0 1.308.3 1.308 1.608v2.23h-.686V9.263c0-.622-.236-1.115-.88-1.115-.45 0-.793.3-.921.686-.043.086-.043.193-.043.322v2.273h-.686v-5.51zm5.789 5.597c-1.008 0-1.801-.75-1.801-1.93 0-1.265.836-1.994 1.866-1.994 1.072 0 1.8.793 1.8 1.93 0 1.393-.964 1.994-1.865 1.994zm.022-.515c.643 0 1.136-.622 1.136-1.458 0-.643-.322-1.437-1.115-1.437-.793 0-1.158.75-1.158 1.458 0 .815.472 1.437 1.137 1.437zm2.68-2.316c0-.386 0-.707-.021-1.008h.6l.043.622h.021a1.42 1.42 0 0 1 1.244-.707c.515 0 1.33.3 1.33 1.608v2.251h-.687V9.285c0-.6-.236-1.115-.879-1.115-.45 0-.793.321-.922.707a1.459 1.459 0 0 0-.043.322v2.273h-.686V8.684zm4.653.986c.021.923.6 1.309 1.287 1.309.493 0 .793-.086 1.029-.193l.128.471c-.235.108-.664.236-1.265.236-1.158 0-1.844-.772-1.844-1.887 0-1.136.665-2.037 1.759-2.037 1.222 0 1.543 1.072 1.543 1.758 0 .15 0 .258-.021.322l-2.616.022zm1.994-.493c0-.428-.171-1.115-.943-1.115-.708 0-.987.644-1.051 1.115h1.994zM31.585 14.967l-4.61 13.53h2.101l1.372-4.16h4.46l1.416 4.16h2.165l-4.61-13.53h-2.294zm1.093 2.23c.15.6.322 1.222.536 1.908l1.244 3.581H30.92l1.222-3.624c.193-.579.365-1.2.536-1.865zm11.772 1.286c-1.393 0-2.508.536-3.259 1.566l-.086-1.351H39.24l.021.171c.065.837.086 1.759.086 3.088v10.421h2.058v-4.867c.644.75 1.652 1.2 2.81 1.2a4.23 4.23 0 0 0 3.109-1.329c.9-.943 1.372-2.316 1.372-3.945 0-1.437-.408-2.68-1.2-3.603-.816-.857-1.888-1.35-3.046-1.35zm-.514 1.694c1.822 0 2.637 1.694 2.637 3.367 0 2.166-1.05 3.495-2.723 3.495a2.494 2.494 0 0 1-2.423-1.908 2.903 2.903 0 0 1-.064-.665v-1.651c0-.15.042-.322.064-.515 0-.064.021-.107.021-.171.322-1.137 1.33-1.952 2.488-1.952zm11.043-1.694c-1.394 0-2.51.536-3.26 1.566l-.085-1.351h-1.866v.171c.064.837.086 1.759.086 3.088v10.421h2.058v-4.867c.644.75 1.651 1.2 2.81 1.2a4.23 4.23 0 0 0 3.108-1.329c.901-.943 1.373-2.316 1.373-3.945 0-1.437-.408-2.68-1.201-3.603a4.028 4.028 0 0 0-3.023-1.35zm-.494 1.694c1.823 0 2.638 1.694 2.638 3.367 0 2.166-1.05 3.495-2.723 3.495a2.494 2.494 0 0 1-2.423-1.908 2.903 2.903 0 0 1-.065-.665v-1.651c0-.15.043-.322.065-.515 0-.064.021-.107.021-.171.322-1.137 1.33-1.952 2.487-1.952zm13.724.536c-1.909-.75-2.53-1.329-2.53-2.401 0-.9.728-1.823 2.337-1.823 1.329 0 2.187.472 2.401.6l.172.108.579-1.716-.108-.064c-.343-.193-1.329-.665-2.98-.665-2.616 0-4.439 1.544-4.439 3.753 0 1.78 1.137 3.023 3.603 3.924 1.737.643 2.38 1.308 2.38 2.466 0 1.286-1.008 2.101-2.595 2.101-1.05 0-2.123-.3-2.959-.836l-.171-.107-.558 1.758.107.064c.772.515 2.23.9 3.453.9 3.516 0 4.76-2.143 4.76-3.987 0-1.952-1.008-3.11-3.452-4.075zm7.14-4.353l-2.016.622v1.694h-1.48v1.63h1.48v5.018c0 1.222.236 2.058.708 2.594.45.493 1.158.772 1.973.772.772 0 1.33-.15 1.586-.236l.108-.043-.086-1.608-.193.064c-.257.086-.515.108-.944.108-.793 0-1.136-.494-1.136-1.673V20.35h2.466v-1.63h-2.466v-2.358zm7.548 2.123c-2.874 0-4.868 2.145-4.868 5.211 0 2.98 1.93 5.039 4.718 5.039h.021c2.337 0 4.867-1.63 4.867-5.21 0-1.459-.45-2.702-1.308-3.624-.857-.944-2.058-1.416-3.43-1.416zm-.065 1.609c1.844 0 2.68 1.8 2.68 3.473 0 2.059-1.136 3.538-2.723 3.538h-.021c-1.544 0-2.68-1.458-2.68-3.495 0-1.737.857-3.516 2.744-3.516zm11.065-1.522l-.129-.022a1.99 1.99 0 0 0-.515-.065c-1.072 0-2.037.622-2.573 1.652l-.064-1.437h-1.844l.021.171c.065.815.086 1.716.086 2.96l-.021 6.69h2.058v-5.211c0-.279.022-.558.065-.793.235-1.244 1.072-2.059 2.165-2.059.215 0 .365.022.558.043l.214.021v-1.95h-.021zm4.61-.108c-2.723 0-4.632 2.187-4.632 5.296 0 3.002 1.887 4.954 4.825 4.954 1.544 0 2.616-.344 3.238-.622l.128-.065-.386-1.522-.171.064c-.558.236-1.308.45-2.573.45-.9 0-2.938-.3-3.067-2.98l6.605.021.021-.128c.043-.215.064-.493.064-.858 0-2.123-1.05-4.61-4.052-4.61zm-.129 1.544c.622 0 1.137.193 1.501.579.58.6.686 1.48.708 1.908h-4.675c.193-1.18.922-2.487 2.466-2.487z"></path></g></svg><svg width="42" height="42" viewBox="0 0 42 42" id="arrow" y="73"><g fill="#FFF" fill-rule="evenodd" transform="translate(1 1)"><circle cx="20" cy="20" r="20" fill-opacity=".07" stroke="#FFF" stroke-opacity=".87"></circle><path d="M17.457 29.104a.407.407 0 0 1-.167-.036.769.769 0 0 1-.15-.088.446.446 0 0 1 0-.65l7.788-7.77-7.787-7.787a.401.401 0 0 1-.141-.316c0-.129.047-.234.14-.316a.401.401 0 0 1 .317-.141c.129 0 .234.047.316.14l8.104 8.104a.417.417 0 0 1 .123.308.479.479 0 0 1-.123.325l-8.104 8.103a.769.769 0 0 1-.149.088.407.407 0 0 1-.167.036z"></path></g></svg><svg width="24" height="24" viewBox="0 0 24 24" id="facebook" y="115"><g fill="none" fill-rule="evenodd"><path d="M0 0h24v24H0z"></path><circle cx="12" cy="12" r="11" stroke="#969798" stroke-width="2"></circle><path fill="#969798" d="M12.717 19.09h-2.66v-6.273h-1.33v-2.161h1.33V9.358c0-1.763.75-2.813 2.883-2.813h1.775v2.163h-1.11c-.83 0-.885.302-.885.866l-.003 1.082h2.01l-.235 2.161h-1.775v6.274z"></path></g></svg><svg width="25" height="24" viewBox="0 0 25 24" id="googleplus" y="139"><g fill="none" fill-rule="evenodd" transform="translate(.455)"><path d="M0 0h24v24H0z"></path><circle cx="12" cy="12" r="11" stroke="#969798" stroke-width="2"></circle><path fill="#969798" d="M9.934 18.47c-1.48 0-2.55-.944-2.55-2.077 0-1.112 1.327-2.038 2.807-2.021.345.004.667.06.96.155.803.563 1.38.881 1.542 1.523.03.13.048.263.048.4 0 1.135-.726 2.02-2.807 2.02m.39-6.65c-.994-.03-1.939-1.12-2.11-2.434-.171-1.314.495-2.32 1.488-2.291.993.03 1.938 1.084 2.11 2.4.17 1.314-.495 2.355-1.489 2.325m2.06 1.947c-.349-.249-1.014-.853-1.014-1.208 0-.418.117-.622.739-1.112.638-.502 1.09-1.208 1.09-2.029 0-.978-.433-1.93-1.244-2.244h1.223l.863-.629h-3.857c-1.727 0-3.355 1.32-3.355 2.848 0 1.563 1.179 2.823 2.937 2.823.123 0 .241-.002.358-.01a1.6 1.6 0 0 0-.197.724c0 .435.232.787.526 1.074-.222 0-.436.007-.668.007-2.142 0-3.79 1.373-3.79 2.8 0 1.402 1.807 2.28 3.948 2.28 2.44 0 3.79-1.396 3.79-2.8 0-1.124-.33-1.798-1.35-2.524m5.611-1.832h-1.5v-1.513h-1.21v1.513h-1.5v1.217h1.5v1.512h1.21v-1.512h1.5v-1.217"></path></g></svg><svg width="25" height="24" viewBox="0 0 25 24" id="linkedin" y="163"><g fill="none" fill-rule="evenodd" transform="translate(.182)"><path d="M0 0h24v24H0z"></path><circle cx="12" cy="12" r="11" stroke="#969798" stroke-width="2"></circle><path fill="#969798" d="M6.82 10.044h2.127v7.41H6.82v-7.41zm1.01-.927h-.016c-.77 0-1.269-.567-1.269-1.284 0-.732.514-1.288 1.3-1.288.784 0 1.266.554 1.281 1.286 0 .717-.497 1.286-1.296 1.286zm9.625 8.338h-2.412v-3.836c0-1.004-.377-1.688-1.206-1.688-.634 0-.987.462-1.151.908-.062.16-.052.382-.052.605v4.01h-2.389s.03-6.793 0-7.41h2.389v1.163c.14-.509.904-1.235 2.122-1.235 1.511 0 2.699 1.067 2.699 3.361v4.122z"></path></g></svg><svg width="63" height="11.3" viewBox="0 0 84 15" id="palms-footer" y="187"><path fill="#969798" fill-rule="evenodd" d="M12 6V3H3v3h9zM0 15V0h15v9H3v6H0zm30-9V3h-9v3h9zm-12 9V0h15v15h-3V9h-9v6h-3zm18 0V0h3v12h9v3H36zm21-6V6h3v3h-3zm-6 6V0h3v3h3v3h-3v9h-3zm12 0V6h-3V3h3V0h3v15h-3zm6 0v-3h12V9H69V0h15v3H72v3h12v9H69z"></path></svg><svg width="84" height="15" viewBox="0 0 84 15" id="palms-logo" y="199"><path fill="#FFF" fill-rule="evenodd" d="M12 6V3H3v3h9zM0 15V0h15v9H3v6H0zm30-9V3h-9v3h9zm-12 9V0h15v15h-3V9h-9v6h-3zm18 0V0h3v12h9v3H36zm21-6V6h3v3h-3zm-6 6V0h3v3h3v3h-3v9h-3zm12 0V6h-3V3h3V0h3v15h-3zm6 0v-3h12V9H69V0h15v3H72v3h12v9H69z"></path></svg><svg width="25" height="24" viewBox="0 0 25 24" id="twitter" y="214"><g fill="none" fill-rule="evenodd" transform="translate(.727)"><path d="M0 0h24v24H0z"></path><circle cx="12" cy="12" r="11" stroke="#969798" stroke-width="2"></circle><path fill="#969798" d="M16.65 9.189a2.46 2.46 0 0 0 1.033-1.371c-.454.284-.956.49-1.492.601a2.288 2.288 0 0 0-1.715-.783c-1.298 0-2.35 1.11-2.35 2.479 0 .194.02.383.06.564-1.952-.103-3.683-1.09-4.843-2.59a2.577 2.577 0 0 0-.318 1.247c0 .86.415 1.618 1.045 2.064a2.266 2.266 0 0 1-1.065-.31v.03c0 1.201.81 2.203 1.886 2.43a2.21 2.21 0 0 1-1.062.043c.3.985 1.167 1.702 2.196 1.721a4.562 4.562 0 0 1-3.48 1.027 6.408 6.408 0 0 0 3.603 1.114c4.323 0 6.686-3.777 6.686-7.052 0-.108-.002-.215-.007-.321.46-.35.859-.786 1.173-1.283-.422.197-.875.33-1.35.39z"></path></g></svg></svg>